# xmcd
#
# Track frame offsets:
# 150
# 19052
# 34611
# 55475
# 75387
# 94873
# 115791
# 138117
# 155315
# 173424
# 197072
# 215543
# 236117
#
# Disc length: 3389 seconds
#
#
# Revision: 0
# Processed by: cddbd v1.5.2PL0 Copyright (c) Steve Scherf et al.
# Submitted via: FreeRIP 2.95 
#
DISCID=9f0d3b0d
DTITLE=Davor Radolfi and Ritmo Loco - Hopla
DYEAR=1900
DGENRE=
TTITLE0=Zlatna Mriza
TTITLE1=Laku Noc Ljubavi
TTITLE2=Putujem Ja
TTITLE3=Sto Ce Mi Godine
TTITLE4=Da Zivota Imam Dva
TTITLE5=Kada Uistinu Volis Zenu
TTITLE6=Neka Zivim Kako Zivim
TTITLE7=Palim Se Na Tebe
TTITLE8=Anðele
TTITLE9=Samo Jednom Se Voli
TTITLE10=Medley 1 ( Na Bacvama Cina - Festa - Me Va )
TTITLE11=Medley 2 ( Vino Me Je Opilo - S Ribama Je Najbolje - Ja Vise Ne Znam Sta Mi Je )
TTITLE12=Medley 3 ( 1,2,3 Maria - Sara, Sara - Nocas Oko Tri )
EXTD=
EXTT0=
EXTT1=
EXTT2=
EXTT3=
EXTT4=
EXTT5=
EXTT6=
EXTT7=
EXTT8=
EXTT9=
EXTT10=
EXTT11=
EXTT12=
PLAYORDER=
